# xmcd CD database file
#
# Track frame offsets:
#	150
#	20426
#	39284
#	61541
#	77723
#	92847
#	107504
#	123293
#	141228
#	153586
#	171481
#	189398
#
# Disc length: 2790 seconds
#
# Revision: 0
# Processed by: cddbd v1.5.2PL0 Copyright (c) Steve Scherf et al.
# Submitted via: CDex 1.70beta2
#
DISCID=920ae40c
DTITLE=The Strang Tones - We're on our way
DYEAR=2007
DGENRE=Blues
TTITLE0=Mama Makes More
TTITLE1=Fool Me
TTITLE2=I Ain't Movin
TTITLE3=We're on our way
TTITLE4=Hooky
TTITLE5=Kathryn's Style
TTITLE6=That's How We Roll
TTITLE7=Farmer Trent's Wife
TTITLE8=The Swangler
TTITLE9=Between Me and You
TTITLE10=Mi Jefe Me Molesta
TTITLE11=Fourteen Dollars in the Bank
EXTD=
EXTT0=
EXTT1=
EXTT2=
EXTT3=
EXTT4=
EXTT5=
EXTT6=
EXTT7=
EXTT8=
EXTT9=
EXTT10=
EXTT11=
PLAYORDER=
